<?xml version="1.0" encoding="utf-8"?>
<!-- Generator: Adobe Illustrator 15.1.0, SVG Export Plug-In . SVG Version: 6.00 Build 0)  -->
<!DOCTYPE svg PUBLIC "-//W3C//DTD SVG 1.1//EN" "http://www.w3.org/Graphics/SVG/1.1/DTD/svg11.dtd">
<svg version="1.1" id="Layer_1" xmlns="http://www.w3.org/2000/svg" xmlns:xlink="http://www.w3.org/1999/xlink" x="0px" y="0px"
	 width="255px" height="433px" viewBox="128.5 39.5 255 433" enable-background="new 128.5 39.5 255 433" xml:space="preserve">
<path fill="#00B4AB" d="M376.987,98.011v18.063h-69.995V98.011H376.987z M347.635,137.379h-40.643v18.063h40.643V137.379z
	 M306.992,194.811h69.995v-18.063h-69.995V194.811z M347.635,216.125h-40.643v18.063h40.643V216.125z M306.992,273.558h69.995
	v-18.063h-69.995V273.558z M317.902,376.481c0,50.423-41.021,91.444-91.445,91.444c-50.423,0-91.444-41.021-91.444-91.444
	c0-32.677,17.16-62.372,45.158-78.801V90.37c0-25.523,20.764-46.287,46.287-46.287c25.523,0,46.287,20.764,46.287,46.287v207.311
	C300.742,314.091,317.902,343.796,317.902,376.481L317.902,376.481z M299.839,376.481c0-27.728-15.407-52.79-40.218-65.389
	l-4.939-2.511V90.379c0-15.57-12.663-28.224-28.224-28.224c-15.561,0-28.224,12.653-28.224,28.224v218.203l-4.94,2.511
	c-24.81,12.608-40.218,37.671-40.218,65.389c0,40.462,32.92,73.381,73.381,73.381S299.839,416.943,299.839,376.481L299.839,376.481z
	 M284.793,376.481c0,32.161-26.164,58.326-58.335,58.326c-32.161,0-58.326-26.165-58.326-58.326
	c0-26.363,17.81-49.511,43.315-56.294l3.351-0.895V118.521h23.329v200.763l3.351,0.903
	C266.991,326.971,284.793,350.127,284.793,376.481L284.793,376.481z M229.348,337.6c-1.391-6.177-7.604-10.241-13.936-8.796
	c-22.109,5.003-37.553,24.34-37.553,47.027c0,6.421,5.229,11.65,11.651,11.65c6.421,0,11.65-5.229,11.65-11.65
	c0-11.533,8.146-21.757,19.391-24.295C226.801,350.1,230.757,343.85,229.348,337.6L229.348,337.6z"/>
</svg>
